<svg version="1" xmlns="http://www.w3.org/2000/svg" width="853.333" height="853.333" viewBox="0 0 640.000000 640.000000"><path d="M497.6 121.1c-33.7 3.5-61.9 16.2-83.2 37.4-15.3 15.2-26.4 34.1-34.4 58.3-3 9.1-8 30.3-8 33.8 0 .2-3.4.4-7.6.4-11.1 0-16.4 4-16.4 12.5 0 5.3 5.3 10.5 10.7 10.5 2.1 0 5.4.3 7.3.6l3.5.6v22l.1 21.9-19.6-.3c-19.3-.3-19.6-.3-24.2-3.1-5.8-3.4-9.5-9.3-10.8-17.3-1.5-9.4-6.1-13.9-13.3-13-8 .9-11.7 8-9.8 18.6 2.5 14.6 12.6 28.1 25.5 34.1 7.8 3.7 17.5 4.9 39.8 4.9H373l.6 2.7c8.7 39.2 20.9 63.3 43.3 85.3 12.9 12.7 23 19.6 38.2 26.1 20.5 8.9 38.2 12.1 65.9 12.1 34.5.1 64.8-5.6 86.5-16.2 4.4-2.2 9.3-4.9 10.8-6.2l2.8-2.3-11.1-29.1-11.2-29.1-8.6 5.2c-17.3 10.4-33.1 15.6-53.3 17.5-41.4 3.9-67.8-15.5-78.5-57.8-4.1-16.2-5.6-30.7-5.6-55.7 0-24.3 1.1-37.9 4.3-53.5 8.7-42.5 30.2-62 68.3-62 21.1 0 41.3 6 63.3 18.7 5.3 3 9.9 5.1 10.4 4.6.4-.4 5.7-13.4 11.7-28.8l10.9-28-2.1-1.8c-3.7-3.1-21.7-11.5-31.5-14.7-25.5-8.3-62.2-11.9-90.5-8.9z"/><path d="M9 295.1v169.1l73.3-.5c79.1-.5 85.1-.8 109.6-6.3 35.9-8.1 59.8-24.3 72.1-48.9 6.7-13.6 8.3-21.3 8.4-41.5.1-9.6-.2-19-.6-20.8l-.7-3.2h4.2c13.2 0 20.5-8.8 15-18.1-2.8-4.7-6.7-5.9-18.9-5.9h-10.7l-6.6-6.4c-3.6-3.4-9.2-7.8-12.4-9.5-5.6-3.2-5.7-3.4-5.7-7.7 0-7.8 5.5-15.6 13.2-18.8 3.1-1.3 8.7-1.6 31.6-1.6 27.1 0 28 .1 32.2 2.3 5.7 3 9.6 8.1 11 14.2 3.1 13.6 5.5 16.8 12.9 16.8 5.1 0 8.8-2.5 10.8-7.1 1.3-3 1.4-4.9.5-10.5-2.8-18.5-16.2-33.4-34.3-38.2-4-1.1-12.2-1.5-32.1-1.5-14.8 0-26.8-.2-26.8-.5s1.3-2.6 2.9-5.2c6.1-10 7.6-16.3 7.5-31.8-.1-12.1-.5-15.2-2.8-23-6.7-22.3-18.3-35.3-42.1-47-12.8-6.4-27.6-10.5-48.2-13.4-24.2-3.5-39.3-4.1-102-4.1H9v169.1zm128.3-116c31.1 2.7 45 11.6 48.6 31.4 3.8 20.5-2.5 35.3-18.8 43.9-12.9 6.8-30.4 9.6-59.8 9.6H92v-86h16.8c9.2 0 22 .5 28.5 1.1zm77.2 102.1c-.2.7-.9 3.2-1.5 5.4l-1 4.1-8.8-2c-4.8-1.1-9.4-2.2-10.2-2.4-.8-.3 2.3-1.3 7-2.3 4.7-1 9.6-2.3 11-2.8 3.4-1.4 4-1.4 3.5 0zm-63.2 36.2c12.3 2.3 20.7 5.9 26.6 11.5 8.3 7.9 12 18.6 12.1 35 0 27.5-9 40.3-32 45.2-2.5.6-18.3 1.3-35.2 1.6l-30.8.6v-96.6l25.3.6c16.3.3 28.3 1.1 34 2.1z"/></svg>